HIERARCHY
ROOT Hips
{
	OFFSET -3.958830 18.904000 13.208200
	CHANNELS 6 Xposition Yposition Zposition Zrotation Yrotation Xrotation 
	JOINT LHipJoint
	{
		OFFSET 0.000000 0.000000 0.000000
		CHANNELS 3 Zrotation Yrotation Xrotation
		JOINT LeftUpLeg
		{
			OFFSET 1.800000 -1.400000 0.085000
			CHANNELS 3 Zrotation Yrotation Xrotation
			JOINT LeftLeg
			{
				OFFSET 2.215000 -6.000000 0.000000
				CHANNELS 3 Zrotation Yrotation Xrotation
				JOINT LeftFoot
				{
					OFFSET 2.500000 -6.900000 0.000000
					CHANNELS 3 Zrotation Yrotation Xrotation
					JOINT LeftToeBase
					{
						OFFSET 0.200000 -0.500000 1.950000
						CHANNELS 3 Zrotation Yrotation Xrotation
						End Site
						{
							OFFSET 0.000000 0.000000 0.000000
						}
					}
				}
			}
		}
	}
	JOINT RHipJoint
	{
		OFFSET 0.000000 0.000000 0.000000
		CHANNELS 3 Zrotation Yrotation Xrotation
		JOINT RightUpLeg
		{
			OFFSET -1.800000 -1.400000 0.085000
			CHANNELS 3 Zrotation Yrotation Xrotation
			JOINT RightLeg
			{
				OFFSET -2.215000 -6.000000 0.000000
				CHANNELS 3 Zrotation Yrotation Xrotation
				JOINT RightFoot
				{
					OFFSET -2.500000 -6.900000 0.000000
					CHANNELS 3 Zrotation Yrotation Xrotation
					JOINT RightToeBase
					{
						OFFSET -0.200000 -0.500000 1.950000
						CHANNELS 3 Zrotation Yrotation Xrotation
						End Site
						{
							OFFSET 0.000000 0.000000 0.000000
						}
					}
				}
			}
		}
	}
	JOINT LowerBack
	{
		OFFSET 0.000000 0.000000 0.000000
		CHANNELS 3 Zrotation Yrotation Xrotation
		JOINT Spine
		{
			OFFSET -0.087000 1.940000 -0.288900
			CHANNELS 3 Zrotation Yrotation Xrotation
			JOINT Spine1
			{
				OFFSET 0.000000 1.950000 0.060000
				CHANNELS 3 Zrotation Yrotation Xrotation
				JOINT Neck
				{
					OFFSET 0.000000 0.000000 0.000000
					CHANNELS 3 Zrotation Yrotation Xrotation
					JOINT Neck1
					{
						OFFSET 0.000000 1.600000 0.340000
						CHANNELS 3 Zrotation Yrotation Xrotation
						JOINT Head
						{
							OFFSET 0.000000 1.667000 -0.240000
							CHANNELS 3 Zrotation Yrotation Xrotation
							End Site
							{
								OFFSET 0.000000 0.000000 0.000000
							}
						}
					}
				}
				JOINT LeftShoulder
				{
					OFFSET 0.000000 0.000000 0.000000
					CHANNELS 3 Zrotation Yrotation Xrotation
					JOINT LeftArm
					{
						OFFSET 2.700000 1.550000 -0.730000
						CHANNELS 3 Zrotation Yrotation Xrotation
						JOINT LeftForeArm
						{
							OFFSET 5.450000 0.000000 0.000000
							CHANNELS 3 Zrotation Yrotation Xrotation
							JOINT LeftHand
							{
								OFFSET 3.450000 0.000000 0.000000
								CHANNELS 3 Zrotation Yrotation Xrotation
								JOINT LeftHandIndex1
								{
									OFFSET 0.750000 0.000000 0.000000
									CHANNELS 3 Zrotation Yrotation Xrotation
									End Site
									{
										OFFSET 0.000000 0.000000 0.000000
									}
								}
							}
						}
					}
				}
				JOINT RightShoulder
				{
					OFFSET 0.000000 0.000000 0.000000
					CHANNELS 3 Zrotation Yrotation Xrotation
					JOINT RightArm
					{
						OFFSET -2.700000 1.550000 -0.730000
						CHANNELS 3 Zrotation Yrotation Xrotation
						JOINT RightForeArm
						{
							OFFSET -5.450000 0.000000 0.000000
							CHANNELS 3 Zrotation Yrotation Xrotation
							JOINT RightHand
							{
								OFFSET -3.450000 0.000000 0.000000
								CHANNELS 3 Zrotation Yrotation Xrotation
								JOINT RightHandIndex1
								{
									OFFSET -0.750000 0.000000 0.000000
									CHANNELS 3 Zrotation Yrotation Xrotation
									End Site
									{
										OFFSET 0.000000 0.000000 0.000000
									}
								}
							}
						}
					}
				}
			}
		}
	}
}
MOTION
Frames: 7
Frame Time: 0.016667
1.030100 17.351100 -1.213200 -10.012659 -11.735848 14.680240 -15.126663 12.545857 3.383377 -2.159637 -2.272475 -13.402255 -4.962723 2.198344 -3.711975 -0.897378 3.842079 3.688297 0.176810 -0.291260 -0.048760 18.394977 -10.780045 2.813804 -8.357140 -0.968937 5.797794 6.810451 -6.185154 4.584110 -0.942865 -5.365360 2.547854 -0.011360 1.007740 0.997900 -3.716960 -1.197821 -7.451161 11.686075 3.633878 4.110065 -0.781715 3.384740 3.165822 2.409361 -2.082795 -9.604074 -4.272760 4.978115 28.730923 -5.191170 3.917590 -12.435430 -16.789045 -9.321122 2.689545 -8.755154 -4.111608 -0.503081 10.584648 -28.781168 -2.535152 -4.251048 2.780078 0.829970 0.585200 0.170200 0.534020 12.368876 11.800803 6.665226 14.033271 5.346633 -4.862136 -16.117469 29.145087 -2.492660 1.696148 -1.294031 -0.381490 0.406370 0.255570 0.029070 
1.028590 17.350340 -1.219050 -9.966161 -12.025652 14.845935 -15.131310 12.518923 3.381327 -2.283817 -2.321589 -13.540939 -4.918617 2.174548 -3.763303 -0.899366 3.827824 3.694674 0.172470 -0.295240 -0.052750 18.394005 -10.771409 2.823477 -8.611126 -0.935216 6.070513 6.804375 -6.171536 4.239295 -0.949295 -5.402683 2.538108 -0.012760 1.012410 0.997660 -3.709098 -1.171553 -7.448352 11.436359 3.775897 3.979914 -0.690969 3.495627 3.230064 2.393995 -2.058447 -9.618360 -4.211236 4.993899 28.678192 -5.185300 3.950440 -12.303230 -16.716596 -9.323786 2.718112 -8.786295 -4.056361 -0.506455 10.666681 -28.721846 -2.549589 -4.255430 2.779458 0.826130 0.589300 0.166400 0.533970 12.353911 11.820446 6.678584 14.036764 5.352316 -4.859495 -16.143826 29.135666 -2.504476 1.695574 -1.295312 -0.382820 0.406810 0.257680 0.030120 
1.026440 17.349220 -1.225400 -9.901752 -12.317154 15.001305 -15.137527 12.491171 3.378630 -2.414271 -2.370708 -13.674060 -4.882288 2.152491 -3.806895 -0.901274 3.815168 3.700770 0.168620 -0.298670 -0.056580 18.392023 -10.761838 2.832250 -8.857722 -0.895294 6.311058 6.797971 -6.154951 3.898052 -0.954804 -5.438663 2.528307 -0.013620 1.018130 0.998440 -3.697640 -1.144937 -7.443330 11.132565 3.922120 3.848780 -0.574204 3.605189 3.313748 2.372654 -2.024138 -9.625440 -4.125540 5.005794 28.580340 -5.184560 3.984210 -12.154830 -16.628814 -9.324692 2.744375 -8.814909 -4.020510 -0.508045 10.762342 -28.651834 -2.567311 -4.261156 2.779942 0.821110 0.594650 0.162000 0.534270 12.340423 11.831978 6.685091 14.032611 5.368728 -4.852302 -16.169223 29.115229 -2.518434 1.694792 -1.298067 -0.383770 0.406860 0.259720 0.031580 
1.023570 17.347750 -1.232120 -9.811886 -12.612824 15.144509 -15.145920 12.462688 3.375867 -2.561229 -2.420187 -13.796225 -4.848186 2.130983 -3.851674 -0.903077 3.803894 3.706576 0.164690 -0.301830 -0.060700 18.388513 -10.751026 2.839402 -9.103643 -0.848509 6.519999 6.787900 -6.135315 3.565305 -0.958928 -5.472908 2.518686 -0.013720 1.024720 0.999410 -3.680995 -1.119250 -7.435938 10.756072 4.074863 3.713353 -0.421910 3.714208 3.419739 2.343004 -1.978105 -9.628380 -4.013470 5.017220 28.440168 -5.175620 4.020430 -11.991610 -16.516152 -9.325518 2.772030 -8.854797 -4.003564 -0.509029 10.868431 -28.573798 -2.587703 -4.267917 2.780779 0.814930 0.600960 0.156950 0.534740 12.325637 11.836227 6.686559 14.028705 5.388465 -4.843653 -16.195094 29.094230 -2.535576 1.693873 -1.301728 -0.384940 0.406950 0.261770 0.033370 
1.020300 17.346260 -1.238950 -9.712500 -12.910425 15.274954 -15.155113 12.434916 3.373444 -2.712054 -2.467720 -13.905861 -4.813246 2.110053 -3.900985 -0.904575 3.793949 3.712272 0.160230 -0.305420 -0.065550 18.384267 -10.739712 2.845725 -9.342545 -0.798066 6.700836 6.782457 -6.115889 3.248537 -0.961998 -5.505122 2.509868 -0.013980 1.032000 1.000250 -3.662161 -1.095277 -7.428326 10.353754 4.226827 3.583641 -0.259700 3.822421 3.530113 2.311281 -1.927941 -9.633527 -3.893574 5.028629 28.293658 -5.164620 4.056850 -11.815880 -16.398963 -9.331510 2.802839 -8.889049 -3.981438 -0.510237 10.973766 -28.494566 -2.607716 -4.275235 2.781597 0.808320 0.607770 0.151280 0.535190 12.312540 11.844253 6.689140 14.023592 5.408253 -4.833667 -16.203176 29.075293 -2.549422 1.692605 -1.305379 -0.386270 0.407290 0.264280 0.035270 
1.016680 17.344770 -1.245880 -9.611900 -13.199674 15.393114 -15.164660 12.408523 3.370842 -2.854976 -2.512305 -14.008362 -4.783228 2.091221 -3.945973 -0.905706 3.785589 3.717681 0.154880 -0.309580 -0.071350 18.379688 -10.728325 2.851236 -9.559792 -0.748321 6.857925 6.773726 -6.096154 2.954747 -0.964066 -5.534869 2.501665 -0.014350 1.040080 1.000980 -3.642336 -1.073308 -7.419969 9.942252 4.373036 3.458473 -0.088313 3.924341 3.648571 2.277246 -1.877138 -9.641380 -3.772116 5.040739 28.139169 -5.152260 4.092370 -11.627230 -16.270901 -9.340470 2.838965 -8.938458 -3.955632 -0.513585 11.091647 -28.414773 -2.631306 -4.283047 2.782073 0.801240 0.615040 0.145210 0.535670 12.294222 11.854720 6.691562 14.020073 5.432178 -4.823300 -16.200506 29.058515 -2.561529 1.691383 -1.308859 -0.387940 0.408000 0.267280 0.037540 
1.012840 17.343380 -1.252860 -9.504974 -13.477600 15.495814 -15.174448 12.384868 3.368956 -2.997206 -2.555079 -14.103214 -4.756967 2.074769 -3.981937 -0.906658 3.777947 3.723145 0.150070 -0.313590 -0.076710 18.374451 -10.717339 2.855489 -9.764979 -0.698151 6.991445 6.762623 -6.078055 2.695182 -0.965382 -5.561613 2.494916 -0.014880 1.048150 1.001410 -3.621095 -1.055414 -7.412009 9.524089 4.510083 3.346421 0.085194 4.020152 3.759875 2.240304 -1.829428 -9.651127 -3.659152 5.052971 27.995485 -5.130350 4.122000 -11.440590 -16.148208 -9.352379 2.875828 -8.974281 -3.920110 -0.516655 11.190165 -28.342715 -2.650566 -4.290205 2.782639 0.794560 0.622000 0.139060 0.536480 12.286807 11.870149 6.695250 14.006610 5.453135 -4.811747 -16.181967 29.034454 -2.568737 1.690189 -1.312134 -0.389630 0.408990 0.269910 0.039690 
